<?xml version="1.0" encoding="utf-8"?><svg viewBox="0 0 85 48" xmlns="http://www.w3.org/2000/svg" xmlns:xlink="http://www.w3.org/1999/xlink"><style>:root>svg{display:none}:root>svg:target{display:block}</style><svg fill="none" viewBox="0 0 40 40" id="about-1" xmlns="http://www.w3.org/2000/svg"><path d="M20 33.333c2.083 0 3.854-.729 5.312-2.187 1.459-1.459 2.188-3.23 2.188-5.313 0-2.083-.73-3.854-2.188-5.312-1.458-1.459-3.229-2.188-5.312-2.188s-3.854.73-5.313 2.188C13.23 21.979 12.5 23.75 12.5 25.833c0 2.084.73 3.854 2.187 5.313 1.459 1.458 3.23 2.187 5.313 2.187zm-4.875-17.166a8.636 8.636 0 011.77-.73 9.908 9.908 0 011.897-.354l-4.209-8.416h-4.166l4.708 9.5zm-4.458 15.166a11.132 11.132 0 01-1.105-2.604 10.563 10.563 0 01-.395-2.896c0-1 .132-1.965.395-2.896a11.13 11.13 0 011.105-2.604 5.867 5.867 0 00-2.875 2.063c-.75.986-1.125 2.132-1.125 3.437 0 1.306.375 2.452 1.125 3.438a5.868 5.868 0 002.875 2.062zm18.666 0a5.868 5.868 0 002.875-2.062c.75-.986 1.125-2.132 1.125-3.438 0-1.305-.375-2.451-1.125-3.437a5.867 5.867 0 00-2.875-2.063c.473.806.84 1.674 1.104 2.604.264.931.396 1.896.396 2.896s-.132 1.966-.396 2.896c-.264.93-.632 1.799-1.104 2.604zM20 36.667c-1.111 0-2.174-.16-3.188-.48A11.574 11.574 0 0114 34.875c-.25.056-.5.09-.75.104-.25.014-.514.02-.792.02-2.528 0-4.68-.888-6.458-2.666-1.778-1.777-2.667-3.93-2.667-6.458 0-2.417.806-4.486 2.417-6.208 1.611-1.723 3.597-2.681 5.958-2.875L6.208 5.75c-.278-.556-.257-1.097.063-1.625s.798-.792 1.437-.792h6.917a3.11 3.11 0 011.73.5c.513.334.923.778 1.228 1.334L20 10l2.417-4.833c.305-.556.715-1 1.229-1.334.514-.333 1.09-.5 1.729-.5h6.917c.639 0 1.118.264 1.437.792.32.528.34 1.07.063 1.625l-5.459 10.958c2.361.223 4.34 1.195 5.938 2.917 1.597 1.722 2.396 3.792 2.396 6.208 0 2.556-.89 4.723-2.667 6.5C32.222 34.111 30.055 35 27.5 35c-.25 0-.507-.007-.77-.02a4.677 4.677 0 01-.772-.105 11.62 11.62 0 01-2.791 1.312c-1 .32-2.056.48-3.167.48zm0-8.584l-2.042 1.542c-.166.139-.333.146-.5.02-.166-.124-.222-.284-.166-.478l.791-2.542-2.041-1.458c-.167-.14-.223-.299-.167-.48.056-.18.194-.27.417-.27h2.5l.791-2.709c.056-.194.195-.291.417-.291.222 0 .361.097.417.291l.791 2.709h2.5c.223 0 .361.09.417.27.055.181 0 .34-.167.48l-2.041 1.458.791 2.542c.056.194 0 .354-.166.479-.167.125-.334.118-.5-.021L20 28.083zm4.875-11.916l4.75-9.5h-4.208l-3.542 7.083.792 1.583c.388.111.763.23 1.125.354.36.125.722.285 1.083.48z" fill="#367CF7"/></svg><svg fill="none" viewBox="0 0 40 40" id="about-2" xmlns="http://www.w3.org/2000/svg"><path d="M10.083 35.084c-.306.25-.632.263-.98.041-.346-.222-.45-.528-.312-.916L11.916 24l-8.125-5.833c-.333-.222-.437-.528-.312-.917s.382-.583.77-.583h10.084L17.541 6c.056-.222.16-.375.313-.458a.987.987 0 01.958 0c.153.083.257.236.313.458l3.208 10.667h10.083c.39 0 .646.194.771.583.125.39.021.695-.312.917L24.75 24l3.125 10.209c.139.388.034.694-.313.916-.347.222-.673.209-.979-.041l-8.25-6.25-8.25 6.25zm4.25-7.334l4-3.083 4 3.083-1.5-5.083L24.583 20h-4.667l-1.583-5.166L16.75 20h-4.667l3.75 2.667-1.5 5.083zM33.5 35.084l-2.459-1.875-2.458-7.875 5.167-3.667h3.125c.389 0 .653.194.791.583.14.39.042.695-.291.917l-4.875 3.5 2.333 7.5c.139.389.028.701-.333.937-.361.236-.695.23-1-.02zm-8.667-21.75l-1.25-4.25L24.5 6c.055-.222.16-.382.312-.479a.88.88 0 01.48-.146.8.8 0 01.478.167.83.83 0 01.313.458l2.25 7.334h-3.5z" fill="#367CF7"/></svg><svg fill="none" viewBox="0 0 40 40" id="about-3" xmlns="http://www.w3.org/2000/svg"><path d="M11.667 23.333a3.21 3.21 0 01-2.354-.979A3.21 3.21 0 018.333 20c0-.917.327-1.701.98-2.354a3.21 3.21 0 012.354-.98 3.21 3.21 0 012.354.98A3.21 3.21 0 0115 20a3.21 3.21 0 01-.98 2.354 3.21 3.21 0 01-2.354.98zm0 6.667c-2.778 0-5.14-.972-7.084-2.917C2.64 25.14 1.667 22.778 1.667 20c0-2.778.972-5.139 2.916-7.083C6.528 10.972 8.89 10 11.667 10c1.86 0 3.548.458 5.062 1.375A10.354 10.354 0 0120.333 15h13.959c.222 0 .437.042.646.125.208.083.395.208.562.375l3.333 3.333c.167.167.285.348.355.542.069.194.104.403.104.625 0 .222-.035.43-.104.625-.07.194-.188.375-.355.542l-5.291 5.291c-.14.14-.306.25-.5.334a2.302 2.302 0 01-.584.166 1.387 1.387 0 01-.583-.041 1.474 1.474 0 01-.542-.292L29.167 25l-2.375 1.792a1.475 1.475 0 01-.459.25 1.574 1.574 0 01-.5.083 1.77 1.77 0 01-.52-.083 1.434 1.434 0 01-.48-.25L22.292 25h-1.959a10.354 10.354 0 01-3.604 3.625C15.215 29.542 13.528 30 11.667 30zm0-3.333c1.555 0 2.923-.473 4.104-1.417a6.72 6.72 0 002.354-3.583h5.208l2.417 1.708 3.417-2.542 2.958 2.292L35.25 20l-1.667-1.667H18.125a6.72 6.72 0 00-2.354-3.583c-1.18-.944-2.549-1.417-4.104-1.417-1.834 0-3.403.653-4.709 1.959C5.653 16.597 5 18.167 5 20c0 1.833.653 3.403 1.958 4.708 1.306 1.306 2.875 1.959 4.709 1.959z" fill="#367CF7"/></svg><svg fill="none" viewBox="0 0 40 40" id="about-4" xmlns="http://www.w3.org/2000/svg"><path d="M6.667 36.667a3.21 3.21 0 01-2.355-.98 3.21 3.21 0 01-.979-2.354v-14.5c0-.666.18-1.277.542-1.833a3.322 3.322 0 011.5-1.25l7.292-3.083c.555-.223 1.083-.181 1.583.125.5.305.75.764.75 1.375V15l6.042-2.417c.555-.222 1.076-.166 1.562.167s.73.792.73 1.375v2.542h13.333v16.666a3.21 3.21 0 01-.98 2.354 3.21 3.21 0 01-2.354.98H6.667zm0-3.334h26.666V20H20v-3.417l-8.333 3.334v-3.25l-5 2.208v14.458zM18.333 30h3.334v-6.667h-3.334V30zm-6.666 0H15v-6.667h-3.333V30zM25 30h3.333v-6.667H25V30zm11.667-13.333h-8.334l1.5-11.875a1.66 1.66 0 01.542-1.042 1.557 1.557 0 011.083-.417h2.084c.416 0 .777.14 1.083.417.306.278.486.625.542 1.042l1.5 11.875z" fill="#367CF7"/></svg><svg fill="none" viewBox="0 0 40 40" id="archive-box" xmlns="http://www.w3.org/2000/svg"><path d="M34.869 10.69l-2.5-5A1.25 1.25 0 0031.25 5H8.75a1.25 1.25 0 00-1.119.69l-2.5 5a1.263 1.263 0 00-.131.56V32.5A2.5 2.5 0 007.5 35h25a2.5 2.5 0 002.5-2.5V11.25c0-.194-.045-.386-.131-.56zM9.522 7.5h20.956l1.25 2.5H8.272l1.25-2.5zm22.978 25h-25v-20h25v20zm-6.616-9.634a1.25 1.25 0 010 1.768l-5 5a1.25 1.25 0 01-1.768 0l-5-5a1.251 1.251 0 011.768-1.768l2.866 2.867V16.25a1.25 1.25 0 012.5 0v9.483l2.866-2.867a1.25 1.25 0 011.768 0z" fill="currentColor"/></svg><svg fill="none" viewBox="0 0 21 20" id="arrow-left" xmlns="http://www.w3.org/2000/svg"><path d="M7.02 9.167h9.313c.237 0 .434.08.594.24.16.159.24.357.24.593s-.08.434-.24.594a.806.806 0 01-.594.24H7.021l4.083 4.083a.763.763 0 01.24.583.839.839 0 01-.26.583.879.879 0 01-.584.24.763.763 0 01-.583-.24l-5.5-5.5a.73.73 0 01-.177-.27.922.922 0 01-.052-.313c0-.111.017-.215.052-.313a.731.731 0 01.177-.27l5.5-5.5a.777.777 0 01.573-.23.85.85 0 01.593.23c.167.166.25.364.25.593a.81.81 0 01-.25.594L7.021 9.167z" fill="currentColor"/></svg><svg fill="none" viewBox="0 0 25 24" id="arrow-right" xmlns="http://www.w3.org/2000/svg"><path d="M16.842 13H5.667a.967.967 0 01-.713-.287.968.968 0 01-.287-.713c0-.283.095-.52.287-.712A.967.967 0 015.667 11h11.175l-4.9-4.9a.916.916 0 01-.288-.7c.008-.267.113-.5.313-.7.2-.183.433-.28.7-.287.266-.009.5.087.7.287l6.6 6.6c.1.1.17.208.212.325.042.117.063.242.063.375s-.021.258-.063.375a.877.877 0 01-.212.325l-6.6 6.6a.933.933 0 01-.688.275 1.02 1.02 0 01-.712-.275c-.2-.2-.3-.437-.3-.712 0-.275.1-.513.3-.713L16.842 13z" fill="currentColor"/></svg><svg fill="none" viewBox="0 0 20 20" id="border-all" xmlns="http://www.w3.org/2000/svg"><path d="M2.5 15.833V4.167c0-.459.163-.851.49-1.177.326-.327.718-.49 1.177-.49h11.666c.459 0 .851.163 1.177.49.327.326.49.718.49 1.177v11.666c0 .459-.163.851-.49 1.177-.326.327-.718.49-1.177.49H4.167c-.459 0-.851-.163-1.177-.49a1.605 1.605 0 01-.49-1.177zm8.333-5v5h5v-5h-5zm0-1.666h5v-5h-5v5zm-1.666 0v-5h-5v5h5zm0 1.666h-5v5h5v-5z" fill="currentColor"/></svg><svg fill="none" viewBox="0 0 20 20" id="check-small" xmlns="http://www.w3.org/2000/svg"><path d="M8.333 11.333l4.917-4.916a.79.79 0 01.583-.23.79.79 0 01.583.23.79.79 0 01.23.583.79.79 0 01-.23.583l-5.5 5.5a.8.8 0 01-.583.25.8.8 0 01-.583-.25l-2.167-2.166a.79.79 0 01-.229-.584.79.79 0 01.23-.583.79.79 0 01.583-.23.79.79 0 01.583.23l1.583 1.583z" fill="#fff"/></svg><svg fill="none" viewBox="0 0 20 20" id="chevron-down" xmlns="http://www.w3.org/2000/svg"><path d="M10 10.5l3.25-3.25a.79.79 0 01.583-.23.79.79 0 01.584.23.79.79 0 01.229.583.79.79 0 01-.23.583l-3.833 3.834a.732.732 0 01-.27.177.923.923 0 01-.313.052.923.923 0 01-.313-.052.732.732 0 01-.27-.177L5.583 8.416a.79.79 0 01-.229-.583.79.79 0 01.23-.583.79.79 0 01.583-.23.79.79 0 01.583.23L10 10.5z" fill="currentColor"/></svg><svg fill="none" viewBox="0 0 20 20" id="chevron-right" xmlns="http://www.w3.org/2000/svg"><path d="M10.5 10L7.25 6.75a.79.79 0 01-.23-.583.79.79 0 01.23-.584.79.79 0 01.583-.229.79.79 0 01.584.23l3.833 3.833a.73.73 0 01.177.27.923.923 0 01.052.313.923.923 0 01-.052.313.73.73 0 01-.177.27l-3.833 3.834a.79.79 0 01-.584.229.79.79 0 01-.583-.23.79.79 0 01-.23-.583.79.79 0 01.23-.583L10.5 10z" fill="gray"/></svg><svg fill="none" viewBox="0 0 40 40" id="clear" xmlns="http://www.w3.org/2000/svg"><path d="M20.105 3.724c-1.663.142-2.192.246-2.65.519-.466.272-.684.52-1.164 1.305-.726 1.194-1.375 1.81-2.383 2.259-.508.22-1.213.39-1.643.39-.162 0-.663-.092-1.114-.196-.944-.227-1.297-.24-1.699-.071-.564.234-.69.46-1.713 2.954-1.037 2.544-1.05 2.557-1.791 2.889-.677.305-1.248 1.129-1.248 1.81 0 .17.113 1.137.247 2.156.134 1.019.247 2.019.247 2.22 0 .987-.318 2.097-.889 3.09-.303.526-.324.59-.296.967.021.318.07.468.233.682.183.247.366.35 1.48.87 2.158 1 4.012 1.597 5.62 1.817.825.11 1.748.098 2.242-.039.69-.188 2.841-.33 3.292-.22.148.039.148.045.043.253-.24.46-.268.428 2.926 3.35 1.692 1.557 3.116 2.81 3.363 2.96.585.363 1.487.772 2.108.954 1.826.552 3.99.46 5.76-.247 1.79-.714 3.335-2.084 4.16-3.7.966-1.909 1.022-4.213.134-6.122-.557-1.207-.924-1.623-3.518-4.011-1.248-1.143-2.264-2.11-2.264-2.156 0-.045.952-1.915 2.115-4.167 1.164-2.246 2.116-4.161 2.116-4.252a.39.39 0 00-.127-.273c-.078-.058-1.812-.883-3.864-1.843-2.277-1.059-3.842-1.831-4.026-1.974a3.155 3.155 0 01-.557-.642c-.38-.604-.627-.857-1.093-1.143-.902-.552-1.473-.61-4.047-.39zm3.018.902c.522.182.91.513 1.262 1.058.578.909.628.941 4.618 2.798 1.967.915 3.61 1.694 3.638 1.72.043.039-3.172 6.368-3.772 7.433-.063.104-.19.013-1.107-.825-.69-.636-1.135-.993-1.346-1.077-.423-.175-1.121-.182-1.53-.013-.388.169-.917.617-1.093.948a2.823 2.823 0 01-.17.285c-.02.02-.437-.337-.93-.785-1.05-.954-1.27-1.065-2.052-1.013-.74.052-1.34.429-1.607 1.013l-.092.208-.289-.137c-1.15-.539-2.623.188-2.841 1.402-.064.338.056.844.268 1.143l.169.227-.339.143a2.68 2.68 0 00-.684.493c-.599.604-.733 1.331-.366 2.013.091.168 1.008 1.064 2.446 2.389 2.531 2.337 2.383 2.135 1.6 2.226-.19.026-.408.072-.471.104-.085.039-.325.026-.706-.052-.867-.169-2.7-.15-3.828.046-1.156.2-1.537.22-2.263.136-1.156-.143-2.362-.48-4.012-1.123-1.15-.448-2.425-1.052-2.56-1.208-.14-.168-.098-.37.191-.87.536-.915.924-2.304.924-3.336 0-.22-.113-1.22-.247-2.227-.282-2.103-.296-2.33-.113-2.655.17-.305.374-.474.818-.681.374-.17.867-.61 1.043-.929.057-.104.494-1.155.966-2.33.84-2.064 1.009-2.389 1.277-2.467.063-.02.493.052.944.162 1.41.331 2.306.26 3.526-.298 1.135-.513 1.974-1.286 2.63-2.422.719-1.246.867-1.317 2.94-1.493 2.044-.168 2.686-.168 3.158-.006zM21.22 16.122c.085.04 1.347 1.162 2.8 2.5 1.924 1.759 2.693 2.427 2.806 2.427.218 0 .507-.279.507-.493 0-.143-.268-.428-1.375-1.454-.966-.896-1.375-1.324-1.389-1.435-.028-.46.148-.811.536-1.025.275-.163.74-.175 1.015-.046.106.052 1.777 1.565 3.723 3.363 2.567 2.37 3.624 3.395 3.864 3.733 1.875 2.642 1.572 5.985-.762 8.244-2.418 2.356-6.253 2.746-9.229.948-.712-.429-5.859-5.135-5.753-5.252.042-.046.29-.182.543-.299.409-.181.536-.207 1.036-.207 1.002.006 1.192.11 2.722 1.5 1.403 1.265 1.523 1.336 1.826 1.057.346-.318.437-.207-4.11-4.446-4.626-4.31-4.492-4.155-4.259-4.655a1.25 1.25 0 011.368-.675c.134.032 1.022.811 2.75 2.408 1.558 1.448 2.622 2.383 2.735 2.409.38.084.72-.331.529-.662-.05-.085-1.445-1.383-3.102-2.876-1.855-1.681-3.06-2.817-3.138-2.967-.373-.733.578-1.551 1.361-1.168.106.052 1.586 1.382 3.293 2.953 2.721 2.513 3.13 2.863 3.313 2.863a.742.742 0 00.29-.052c.112-.065.24-.305.24-.441 0-.065-1.185-1.214-2.708-2.623-2.891-2.668-2.891-2.668-2.722-3.148.12-.338.437-.552.818-.552.176 0 .388.033.472.071z" fill="currentColor" stroke="currentColor" stroke-width="1.2"/></svg><svg fill="none" viewBox="0 0 24 24" id="close" xmlns="http://www.w3.org/2000/svg"><path d="M12 13.4l-4.9 4.9a.948.948 0 01-.7.275.948.948 0 01-.7-.275.948.948 0 01-.275-.7c0-.284.092-.517.275-.7l4.9-4.9-4.9-4.9a.948.948 0 01-.275-.7c0-.284.092-.517.275-.7a.948.948 0 01.7-.275c.283 0 .517.091.7.275l4.9 4.9 4.9-4.9a.948.948 0 01.7-.275c.283 0 .517.091.7.275a.948.948 0 01.275.7.948.948 0 01-.275.7L13.4 12l4.9 4.9a.948.948 0 01.275.7.948.948 0 01-.275.7.948.948 0 01-.7.275.949.949 0 01-.7-.275L12 13.4z" fill="currentColor"/></svg><svg fill="none" viewBox="0 0 85 48" id="color-logo" xmlns="http://www.w3.org/2000/svg"><path d="M24.566 21.992h-6.23L14.371 36.65H3.011L11.84 3.67l12.727 18.322zM84.878 0l-2.545 9.468H60.646l-1.272 4.786h14.813c4.615 0 6.924 1.663 6.924 4.99 0 .813-.56 3.308-1.68 7.48-1.018 3.734-2.41 6.32-4.174 7.765-1.765 1.441-4.565 2.163-8.4 2.163H42.169l2.646-9.927h23.417l1.273-4.734H54.691c-2.953 0-4.938-.44-5.956-1.323-.747-.643-1.12-1.66-1.12-3.054 0-.849.611-3.563 1.833-8.144.95-3.53 2.342-5.99 4.174-7.38C55.455.697 58.22.001 61.92.001h22.96V0z" fill="#000306"/><path d="M46.754 4.34c0 .766-.133 1.732-.466 2.898-1 3.798-1.765 6.13-2.232 6.995-1.133 2.066-3.032 3.398-5.763 4.032 2.399.766 3.63 2.198 3.63 4.33 0 .7-.133 1.4-.3 2.166l-3.231 11.893h-11.36l3.132-11.627.034-.167.799-2.865.066-.3h-.333l-4.764-6.862-.433-.6h7.529l1.266-4.764H22.235L15.672.01h24.886c4.13 0 6.196 1.431 6.196 4.33z" fill="#367CF7"/><path d="M31.063 21.696l-.066.3-.067-.001-.2-.3h.333zM9.398 41.053c0 .166-.033.375-.098.621-.22.816-.38 1.321-.481 1.51-.24.439-.654.725-1.236.865.517.159.776.472.776.93 0 .147-.021.3-.065.459l-.69 2.56h-2.44l.864-3.217H3.305l-.865 3.217H0l2.113-7.876h5.95c.891.001 1.335.31 1.335.931zm-2.67 1.103H4.005L3.7 43.305h2.724l.306-1.149zm11.422-2.032L16.04 48H13.6l.842-3.153h-2.713L10.886 48h-2.44l1.586-5.931c.206-.765.558-1.295 1.062-1.584.423-.241 1.058-.361 1.903-.361h5.154zm-2.964 1.945h-2.714l-.317 1.204h2.714l.317-1.204zm10.941-.843c0 .25-.056.582-.164.995l-.262.963c-.184.673-.534 1.155-1.051 1.444-.335.192-.76.286-1.269.286H20.23l-.833 3.084h-2.44l2.113-7.876h5.316c.533 0 .924.052 1.171.162.379.171.57.483.57.942zm-2.594.93h-2.57l-.285 1.084h2.571l.284-1.084z" fill="#367CF7"/><path d="M34.234 40.124l-.547 2.033h-4.662l-.274 1.029h3.183c.992 0 1.488.357 1.488 1.073 0 .176-.12.71-.36 1.607-.218.804-.518 1.36-.896 1.669-.38.309-.982.465-1.806.465h-5.306l.57-2.134h5.032l.273-1.018h-3.184c-.635 0-1.06-.094-1.28-.282-.16-.14-.24-.358-.24-.658 0-.182.13-.764.394-1.75.204-.758.502-1.285.896-1.584.394-.3.989-.45 1.785-.45h4.934zm8.884 0l-4.31 5.032L38.04 48h-2.472l.767-2.843-1.62-5.032h2.778l.645 2.898 2.2-2.898h2.78zm7.274 0l-.547 2.033h-4.662l-.273 1.029h3.183c.992 0 1.488.357 1.488 1.073 0 .176-.12.71-.36 1.607-.219.804-.518 1.36-.897 1.669-.379.309-.981.465-1.806.465h-5.306l.57-2.134h5.033l.273-1.018h-3.185c-.634 0-1.06-.094-1.279-.282-.16-.14-.24-.358-.24-.658 0-.182.13-.764.393-1.75.204-.758.503-1.285.896-1.584.394-.3.99-.45 1.785-.45h4.934zm8.184 0l-.547 2.033H55.62L54.056 48h-2.472l1.566-5.843h-2.408l.548-2.033h7.286zm7.35 0l-.547 2.033h-4.2l-.274 1.029h3.829l-.448 1.662h-3.83l-.274 1.018h4.201L63.813 48H57.14l2.113-7.876h6.674zm9.74 0L74.67 48h-2.43l.48-3.523a6.3 6.3 0 01.165-.777h-.021L70.685 48H68.63l.12-4.3h-.022c-.05.205-.138.465-.262.777L67.075 48h-2.428l3.227-7.876h2.922l-.044 3.15c-.009.409-.056.78-.143 1.115h.023c.078-.293.232-.664.462-1.12l1.643-3.145h2.929z" fill="#000306"/></svg><svg fill="none" viewBox="0 0 72 32" id="color-logo-short" xmlns="http://www.w3.org/2000/svg"><path d="M18.83 19.2h-5.44L9.93 31.997H.01L7.72 3.204 18.829 19.2zM71.485 0l-2.223 8.266H50.33l-1.11 4.178h12.93c4.03 0 6.045 1.452 6.045 4.356 0 .71-.489 2.888-1.466 6.531-.89 3.26-2.105 5.518-3.645 6.779-1.54 1.258-3.986 1.889-7.333 1.889H34.197l2.31-8.667h20.444l1.111-4.133H45.13c-2.578 0-4.312-.385-5.2-1.155-.652-.562-.977-1.45-.977-2.666 0-.741.533-3.111 1.6-7.11.828-3.083 2.044-5.229 3.644-6.444C45.797.609 48.21.001 51.44.001h20.044V0z" fill="#000306"/><path d="M38.2 3.788c0 .67-.116 1.513-.407 2.53-.872 3.317-1.54 5.352-1.949 6.108-.988 1.804-2.646 2.966-5.03 3.52 2.094.669 3.17 1.92 3.17 3.78 0 .612-.117 1.222-.262 1.891L30.9 32h-9.918l2.735-10.15.029-.146.698-2.501.058-.262h-.291l-4.16-5.991-.378-.524h6.573l1.106-4.159H16.794l-5.73-8.26h21.727c3.606 0 5.41 1.25 5.41 3.781z" fill="#367CF7"/><path d="M24.502 18.94l-.058.262h-.059l-.174-.261h.29z" fill="#367CF7"/></svg><svg fill="none" viewBox="0 0 25 24" id="delivery" xmlns="http://www.w3.org/2000/svg"><path d="M11.5 19.425v-6.85L5.5 9.1v6.85l6 3.475zm2 0l6-3.475V9.1l-6 3.475v6.85zm-2 2.3l-7-4.025a1.948 1.948 0 01-1-1.725v-7.95a1.948 1.948 0 011-1.725l7-4.025c.317-.183.65-.275 1-.275s.683.092 1 .275l7 4.025a1.948 1.948 0 011 1.725v7.95a1.948 1.948 0 01-1 1.725l-7 4.025c-.317.183-.65.275-1 .275s-.683-.092-1-.275zm5-13.2l1.925-1.1L12.5 4l-1.95 1.125 5.95 3.4zm-4 2.325l1.95-1.125L8.525 6.3l-1.95 1.125L12.5 10.85z" fill="#367CF7"/></svg><svg fill="none" viewBox="0 0 40 40" id="delivery-truck" xmlns="http://www.w3.org/2000/svg"><path d="M37.4 20.762l-3.75-8.75a1.25 1.25 0 00-1.15-.762h-3.75v-2.5A1.25 1.25 0 0027.5 7.5H3.75A1.25 1.25 0 002.5 8.75V30a1.25 1.25 0 001.25 1.25h2.675a5 5 0 009.65 0h7.85a5 5 0 009.65 0h2.675A1.25 1.25 0 0037.5 30v-8.75a1.25 1.25 0 00-.1-.488zm-8.65-7.012h2.925L34.35 20h-5.6v-6.25zM11.25 32.5a2.5 2.5 0 110-5 2.5 2.5 0 010 5zm12.675-3.75h-7.85a5 5 0 00-9.65 0H5V10h21.25v15.7a5 5 0 00-2.325 3.05zm4.825 3.75a2.5 2.5 0 110-5 2.5 2.5 0 010 5zM35 28.75h-1.425A5 5 0 0028.75 25v-2.5H35v6.25z" fill="currentColor"/></svg><svg fill="none" viewBox="0 0 20 20" id="description" xmlns="http://www.w3.org/2000/svg"><path d="M3.333 17.5a.806.806 0 01-.593-.24.806.806 0 01-.24-.593c0-.236.08-.434.24-.594.16-.16.357-.24.593-.24h13.334c.236 0 .434.08.593.24.16.16.24.358.24.594s-.08.434-.24.593a.806.806 0 01-.593.24H3.333zm0-3.333a.806.806 0 01-.593-.24.806.806 0 01-.24-.594c0-.236.08-.434.24-.593.16-.16.357-.24.593-.24h8.334c.236 0 .434.08.593.24.16.16.24.357.24.593s-.08.434-.24.594a.806.806 0 01-.593.24H3.333zm0-3.334a.806.806 0 01-.593-.24A.807.807 0 012.5 10c0-.236.08-.434.24-.594.16-.16.357-.24.593-.24h13.334c.236 0 .434.08.593.24.16.16.24.358.24.594s-.08.434-.24.594a.806.806 0 01-.593.24H3.333zm0-3.333a.806.806 0 01-.593-.24.806.806 0 01-.24-.593c0-.236.08-.434.24-.594.16-.16.357-.24.593-.24h8.334c.236 0 .434.08.593.24.16.16.24.358.24.594s-.08.434-.24.593a.806.806 0 01-.593.24H3.333zm0-3.333a.806.806 0 01-.593-.24.806.806 0 01-.24-.594c0-.236.08-.434.24-.593.16-.16.357-.24.593-.24h13.334c.236 0 .434.08.593.24.16.16.24.357.24.593s-.08.434-.24.594a.806.806 0 01-.593.24H3.333z" fill="currentColor"/></svg><svg fill="none" viewBox="0 0 24 24" id="developer-guide" xmlns="http://www.w3.org/2000/svg"><path d="M5 21c-.55 0-1.02-.196-1.413-.587A1.926 1.926 0 013 19V5c0-.55.196-1.02.587-1.413A1.926 1.926 0 015 3h14c.55 0 1.02.196 1.413.587.39.393.587.863.587 1.413v14c0 .55-.196 1.02-.587 1.413A1.926 1.926 0 0119 21H5zM5 5v14h14V5h-2v7l-2.5-1.5L12 12V5H5z" fill="#367CF7"/></svg><svg fill="none" viewBox="0 0 24 24" id="directions-run" xmlns="http://www.w3.org/2000/svg"><path d="M13 23v-6l-2.1-2-1 4.4L3 18l.4-2 4.8 1 1.6-8.1-1.8.7V13H6V8.3l3.95-1.7c.583-.25 1.013-.412 1.288-.487.274-.076.529-.113.762-.113.35 0 .675.092.975.275.3.183.542.425.725.725l1 1.6c.433.7 1.02 1.275 1.762 1.725.742.45 1.588.675 2.538.675v2c-1.1 0-2.13-.23-3.088-.688A7.33 7.33 0 0113.5 10.5l-.6 3 2.1 2V23h-2zm.5-17.5c-.55 0-1.02-.196-1.412-.588A1.926 1.926 0 0111.5 3.5c0-.55.196-1.02.588-1.413A1.926 1.926 0 0113.5 1.5c.55 0 1.02.196 1.412.587.392.392.588.863.588 1.413s-.196 1.02-.588 1.412A1.926 1.926 0 0113.5 5.5z" fill="#367CF7"/></svg><svg fill="none" viewBox="0 0 20 20" id="document" xmlns="http://www.w3.org/2000/svg"><path d="M5 18.333c-.459 0-.851-.163-1.177-.49a1.605 1.605 0 01-.49-1.177V3.333c0-.459.163-.851.49-1.177.326-.327.718-.49 1.177-.49h5.979a1.646 1.646 0 011.167.48l4.041 4.04a1.644 1.644 0 01.48 1.167v9.313c0 .458-.164.85-.49 1.177-.327.326-.719.49-1.177.49H5zm5.833-11.667V3.333H5v13.333h10V7.499h-3.334a.806.806 0 01-.593-.24.806.806 0 01-.24-.593z" fill="currentColor"/></svg><svg fill="none" viewBox="0 0 24 24" id="download" xmlns="http://www.w3.org/2000/svg"><path d="M12 15.575c-.133 0-.258-.02-.375-.063a.877.877 0 01-.325-.212l-3.6-3.6a.916.916 0 01-.288-.7 1.022 1.022 0 011-1.013.93.93 0 01.713.288L11 12.15V5c0-.283.096-.52.287-.713A.968.968 0 0112 4c.283 0 .52.096.713.287.191.192.287.43.287.713v7.15l1.875-1.875a.93.93 0 01.713-.287c.275.008.512.112.712.312.183.2.28.433.287.7a.916.916 0 01-.287.7l-3.6 3.6c-.1.1-.208.17-.325.212a1.106 1.106 0 01-.375.063zM6 20c-.55 0-1.02-.196-1.412-.587A1.926 1.926 0 014 18v-2c0-.283.096-.52.287-.713A.967.967 0 015 15c.283 0 .52.096.713.287.191.192.287.43.287.713v2h12v-2a.97.97 0 01.288-.713A.968.968 0 0119 15a.97.97 0 01.712.287c.192.192.288.43.288.713v2c0 .55-.196 1.02-.587 1.413A1.926 1.926 0 0118 20H6z" fill="#367CF7"/></svg><svg fill="none" viewBox="0 0 31 32" id="logo" xmlns="http://www.w3.org/2000/svg"><path fill-rule="evenodd" clip-rule="evenodd" d="M18.073 32c-6.26-6.223-10.315-10.257-13.05-12.979A1326.62 1326.62 0 01.018 14.03c-.026-.04-.026-.044.005-.067.028-.02.93-.024 5.812-.024 4.918 0 5.788.004 5.836.025.034.015 3.641 3.595 8.927 8.86 4.878 4.858 8.87 8.849 8.872 8.867.002.021-.013.038-.042.047-.024.008-.595.027-1.27.042l-1.9.044a395 395 0 01-1.563.034l-1.563.035c-.371.01-.983.021-1.36.026-.375.005-.787.018-.914.027-.127.01-.443.018-.701.02-.26 0-.65.008-.87.017-.22.009-.584.016-.808.017h-.407zm3.648-10.405c-.098.009-.098.009-1.146-1.046-.576-.58-1.757-1.764-2.624-2.63l-2.74-2.74c-.829-.828-1.162-1.171-1.154-1.191.006-.015.028-.032.05-.038.02-.006 1.22-.01 2.663-.01 2.26-.001 2.648-.005 2.792-.028a2.93 2.93 0 00.673-.182 3.22 3.22 0 00.322-.16 3.58 3.58 0 00.28-.186 4.04 4.04 0 00.247-.204 3.053 3.053 0 00.49-.608c.059-.095.14-.251.18-.348.04-.097.093-.25.118-.34.025-.091.056-.243.071-.337a3.457 3.457 0 000-.854 3.392 3.392 0 00-.07-.336 3.443 3.443 0 00-.108-.317 3.077 3.077 0 00-.163-.328 3.703 3.703 0 00-.216-.32 3.227 3.227 0 00-.233-.265 3.608 3.608 0 00-.267-.232 3.92 3.92 0 00-.314-.215 3.014 3.014 0 00-.364-.178 3.28 3.28 0 00-.388-.125 3.758 3.758 0 00-.337-.063c-.098-.011-1.055-.018-2.723-.018-2.156 0-2.58-.004-2.629-.025-.033-.014-.19-.167-.377-.366a130.847 130.847 0 00-1.18-1.244 20.663 20.663 0 01-.4-.427 54.01 54.01 0 00-.574-.615 1427.481 1427.481 0 01-1.54-1.63l-.594-.63c-.14-.15-.429-.452-.64-.67a80.68 80.68 0 01-.739-.779c-.194-.209-.493-.528-.664-.708-.172-.18-.481-.508-.689-.729C6.49.214 6.36.063 6.367.047c.005-.015.027-.03.048-.036C6.437.005 9.384 0 12.964 0c4.17 0 6.615.006 6.803.018.161.01.437.03.613.044.175.015.383.035.461.046.079.01.29.047.471.08a9.84 9.84 0 011.616.415c.142.048.39.14.551.204a12.821 12.821 0 011.359.655c.146.084.366.216.488.295a11.21 11.21 0 01.918.66c.118.096.285.234.372.307.087.073.315.287.506.477.192.19.428.437.525.549.097.112.24.283.319.38a12.775 12.775 0 01.659.92c.088.136.208.331.268.433a14.332 14.332 0 01.68 1.404c.07.177.162.425.206.551a11.305 11.305 0 01.495 2.15c.015.13.035.336.044.455l.036.513c.012.167.016.412.01.562-.006.146-.02.376-.03.512a11.576 11.576 0 01-.274 1.813 11.497 11.497 0 01-.3 1.036c-.042.126-.13.362-.196.524a12.57 12.57 0 01-.314.69c-.108.217-.248.49-.313.608-.065.116-.185.32-.268.45a11.108 11.108 0 01-.957 1.288 12.518 12.518 0 01-.814.85c-.088.083-.264.24-.39.348-.128.109-.363.297-.524.418a13.25 13.25 0 01-.56.394c-.146.097-.39.247-.542.333a13.627 13.627 0 01-1.305.642 12.797 12.797 0 01-1.575.515c-.101.026-.228.05-.281.056zM12.218 8.32c-.523.005-.968.004-.99 0a.666.666 0 01-.16-.134 16.568 16.568 0 00-.259-.26 5.51 5.51 0 01-.302-.33 5.787 5.787 0 00-.27-.3 9.102 9.102 0 00-.222-.213 2.61 2.61 0 01-.233-.256 3.51 3.51 0 00-.275-.3 4.598 4.598 0 01-.264-.277 4.967 4.967 0 00-.192-.212 42.757 42.757 0 01-.637-.673 7.611 7.611 0 00-.513-.555 10.43 10.43 0 01-.37-.389 5.813 5.813 0 00-.248-.265 9.691 9.691 0 01-.278-.29 3.685 3.685 0 01-.222-.256 1.508 1.508 0 00-.292-.291.562.562 0 01-.125-.133 3.122 3.122 0 00-.222-.261 13.232 13.232 0 01-.254-.278 1.192 1.192 0 00-.178-.167.768.768 0 01-.157-.171A3.073 3.073 0 005.29 2a2.872 2.872 0 01-.212-.235.544.544 0 00-.11-.11.863.863 0 01-.144-.146 4.387 4.387 0 00-.33-.339c-.18-.172-.27-.269-.278-.302-.007-.034-.124-.16-.37-.4a4.079 4.079 0 01-.364-.382c-.003-.022.01-.039.036-.049a1.82 1.82 0 01.29-.02l.888-.01c.403-.004.685 0 .763.013.125.019.125.019.285.186.088.092.171.186.186.209a2.652 2.652 0 00.336.365c.025.015.11.098.188.183a12.34 12.34 0 01.435.502c.064.076.136.15.16.165.025.014.085.07.133.122.05.053.17.175.267.273.098.097.185.197.195.221.01.024.081.104.159.177.077.073.177.172.222.22.044.05.117.125.16.17.045.045.129.132.187.194.06.062.125.151.146.198.03.066.055.093.108.116a.89.89 0 01.195.164c.07.072.18.184.244.247s.153.161.198.218a.635.635 0 01.094.15c.008.033.036.06.086.083.04.02.128.092.194.16s.197.207.29.308c.092.1.194.22.224.264a.921.921 0 00.142.153c.047.039.127.113.178.165a18.28 18.28 0 00.575.608 4.898 4.898 0 01.435.5c.039.047.123.14.186.209.064.068.139.137.167.155a.3.3 0 01.08.076c.016.025.08.087.141.139.062.051.152.143.2.203.047.06.152.18.233.266.08.085.168.164.193.175a.23.23 0 01.083.083c.02.035.135.16.254.28.119.12.227.235.241.256.014.02.02.05.015.065-.006.015-.032.036-.058.046-.032.013-.372.022-.998.027zm-3.043-.025c-.968 0-1.056-.002-1.107-.03-.03-.018-.3-.281-.598-.585L6.312 6.5a3723.608 3723.608 0 00-3.934-4.008A879.191 879.191 0 00.863.954 65.572 65.572 0 01.021.092C.007.072.005.052.015.035.03.012.175.008 1.102.004c.83-.004 1.086 0 1.14.017.053.018.172.13.559.53.27.28.825.846 1.234 1.26l1.878 1.911a3671.732 3671.732 0 004.055 4.13c.192.197.35.37.35.384 0 .014-.021.033-.046.043-.028.01-.457.017-1.097.017z" fill="#fff"/></svg><svg fill="none" viewBox="0 0 24 24" id="menu" xmlns="http://www.w3.org/2000/svg"><path d="M4 18a.967.967 0 01-.712-.288A.968.968 0 013 17c0-.283.096-.52.288-.712A.967.967 0 014 16h16c.283 0 .52.096.712.288.192.191.288.429.288.712s-.096.52-.288.712A.968.968 0 0120 18H4zm0-5a.967.967 0 01-.712-.287A.968.968 0 013 12a.97.97 0 01.288-.713A.967.967 0 014 11h16a.97.97 0 01.712.287c.192.192.288.43.288.713s-.096.52-.288.713A.968.968 0 0120 13H4zm0-5a.968.968 0 01-.712-.287A.968.968 0 013 7a.97.97 0 01.288-.713A.968.968 0 014 6h16a.97.97 0 01.712.287c.192.192.288.43.288.713s-.096.52-.288.713A.968.968 0 0120 8H4z" fill="currentColor"/></svg><svg fill="none" viewBox="0 0 24 25" id="plus" xmlns="http://www.w3.org/2000/svg"><path d="M11 13.5H6a.967.967 0 01-.713-.287A.968.968 0 015 12.5c0-.283.096-.52.287-.713A.967.967 0 016 11.5h5v-5c0-.283.096-.52.287-.713A.968.968 0 0112 5.5c.283 0 .52.096.713.287.191.192.287.43.287.713v5h5a.97.97 0 01.712.287c.192.192.288.43.288.713s-.096.52-.288.713A.968.968 0 0118 13.5h-5v5a.97.97 0 01-.287.712.968.968 0 01-.713.288.968.968 0 01-.713-.288A.968.968 0 0111 18.5v-5z" fill="currentColor"/></svg><svg fill="none" viewBox="0 0 20 20" id="question" xmlns="http://www.w3.org/2000/svg"><path d="M9.959 15c.291 0 .538-.101.74-.303.2-.201.301-.448.301-.74 0-.291-.1-.538-.302-.739a1.006 1.006 0 00-.74-.302c-.291 0-.538.1-.739.302a1.006 1.006 0 00-.302.74c0 .291.1.538.302.74.201.2.448.301.74.301zM10 18.332a8.115 8.115 0 01-3.25-.657 8.415 8.415 0 01-2.646-1.78 8.416 8.416 0 01-1.78-2.647A8.114 8.114 0 011.666 10c0-1.152.219-2.236.656-3.25a8.415 8.415 0 011.781-2.645A8.415 8.415 0 016.75 2.322 8.115 8.115 0 0110 1.666c1.153 0 2.236.219 3.25.656a8.416 8.416 0 012.646 1.782 8.415 8.415 0 011.781 2.645 8.115 8.115 0 01.657 3.25 8.114 8.114 0 01-.657 3.25 8.416 8.416 0 01-1.78 2.646 8.416 8.416 0 01-2.647 1.781 8.115 8.115 0 01-3.25.657zm0-1.667c1.861 0 3.438-.646 4.73-1.938 1.291-1.291 1.937-2.867 1.937-4.729 0-1.86-.646-3.437-1.938-4.729C13.438 3.98 11.861 3.333 10 3.333c-1.86 0-3.437.646-4.729 1.937C3.98 6.562 3.334 8.138 3.334 10c0 1.86.645 3.437 1.937 4.729 1.292 1.291 2.868 1.937 4.73 1.937zm.084-10.25c.347 0 .649.111.906.333.257.223.385.5.385.834 0 .305-.093.576-.28.812-.188.236-.4.459-.636.667-.32.278-.601.583-.844.917a1.862 1.862 0 00-.365 1.125c0 .194.073.357.22.49a.737.737 0 00.51.197c.208 0 .385-.07.53-.208a.96.96 0 00.282-.521c.056-.292.18-.552.375-.781.194-.23.403-.448.625-.657.32-.305.594-.639.823-1 .23-.36.344-.764.344-1.208 0-.708-.288-1.288-.865-1.74-.576-.451-1.246-.677-2.01-.677-.528 0-1.032.111-1.51.334a2.33 2.33 0 00-1.095 1.02.751.751 0 00-.093.532c.034.187.128.33.281.427a.83.83 0 001.125-.25c.153-.208.344-.368.573-.48.23-.11.469-.166.719-.166z" fill="currentColor"/></svg><svg fill="none" viewBox="0 0 25 24" id="savings" xmlns="http://www.w3.org/2000/svg"><path d="M16.5 11a.97.97 0 00.712-.287A.968.968 0 0017.5 10a.967.967 0 00-.288-.713A.968.968 0 0016.5 9a.968.968 0 00-.713.287.967.967 0 00-.287.713c0 .283.096.52.287.713.192.191.43.287.713.287zm-8-2h5V7h-5v2zM5 21c-.567-1.9-1.125-3.796-1.675-5.688A20.715 20.715 0 012.5 9.5c0-1.533.533-2.833 1.6-3.9C5.167 4.533 6.467 4 8 4h5a5.081 5.081 0 011.762-1.475A4.886 4.886 0 0117 2c.417 0 .77.146 1.063.438a1.446 1.446 0 01.4 1.362c-.026.1-.055.192-.088.275-.067.183-.13.37-.188.563a4.63 4.63 0 00-.137.587L20.325 7.5H22.5v6.975l-2.825.925L18 21h-5.5v-2h-2v2H5zm1.5-2h2v-2h6v2h2l1.55-5.15 2.45-.825V9.5h-1L16 6a7.179 7.179 0 01.25-1.9 3.164 3.164 0 00-1.275.688 2.81 2.81 0 00-.8 1.212H8c-.967 0-1.792.342-2.475 1.025A3.372 3.372 0 004.5 9.5c0 1.633.225 3.23.675 4.787.45 1.559.892 3.13 1.325 4.713z" fill="#367CF7"/></svg><svg fill="none" viewBox="0 0 24 24" id="search" xmlns="http://www.w3.org/2000/svg"><path d="M19.6 21l-6.3-6.3A6.096 6.096 0 019.5 16c-1.817 0-3.354-.63-4.613-1.887C3.63 12.854 3 11.317 3 9.5c0-1.817.63-3.354 1.887-4.612C6.146 3.629 7.683 3 9.5 3c1.817 0 3.354.63 4.612 1.888C15.371 6.146 16 7.683 16 9.5a6.094 6.094 0 01-1.3 3.8l6.3 6.3-1.4 1.4zM9.5 14c1.25 0 2.312-.438 3.187-1.313C13.562 11.813 14 10.75 14 9.5c0-1.25-.438-2.313-1.313-3.188S10.75 5 9.5 5c-1.25 0-2.313.438-3.188 1.313S5 8.25 5 9.5c0 1.25.437 2.313 1.312 3.188C7.187 13.562 8.25 14 9.5 14z" fill="currentColor"/></svg><svg fill="none" viewBox="0 0 24 24" id="swap-horizontal" xmlns="http://www.w3.org/2000/svg"><path d="M7 20l-5-5 5-5 1.4 1.425L5.825 14H13v2H5.825L8.4 18.575 7 20zm10-6l-1.4-1.425L18.175 10H11V8h7.175L15.6 5.425 17 4l5 5-5 5z" fill="#367CF7"/></svg><svg fill="none" viewBox="0 0 25 24" id="verified" xmlns="http://www.w3.org/2000/svg"><path d="M11.45 15.55L17.1 9.9l-1.425-1.425L11.45 12.7l-2.1-2.1-1.425 1.425 3.525 3.525zM12.5 22c-2.317-.583-4.23-1.913-5.737-3.988C5.254 15.938 4.5 13.633 4.5 11.1V5l8-3 8 3v6.1c0 2.533-.754 4.838-2.262 6.912-1.509 2.075-3.421 3.405-5.738 3.988zm0-2.1c1.733-.55 3.167-1.65 4.3-3.3s1.7-3.483 1.7-5.5V6.375l-6-2.25-6 2.25V11.1c0 2.017.567 3.85 1.7 5.5s2.567 2.75 4.3 3.3z" fill="#367CF7"/></svg></svg>