<?xml version="1.0" standalone="no"?>
<!DOCTYPE svg PUBLIC "-//W3C//DTD SVG 20010904//EN"
 "http://www.w3.org/TR/2001/REC-SVG-20010904/DTD/svg10.dtd">
<svg version="1.0" xmlns="http://www.w3.org/2000/svg"
 width="1040.000000pt" height="1040.000000pt" viewBox="0 0 1040.000000 1040.000000"
 preserveAspectRatio="xMidYMid meet">
<metadata>
Created by potrace 1.14, written by Peter Selinger 2001-2017
</metadata>
<g transform="translate(0.000000,1040.000000) scale(0.100000,-0.100000)"
fill="#000000" stroke="none">
<path d="M1930 8154 c0 -8 34 -58 45 -66 6 -5 6 -8 0 -8 -6 0 -6 -3 1 -8 6 -4
35 -43 65 -87 29 -44 57 -81 61 -83 5 -2 8 -10 8 -17 0 -7 3 -15 8 -17 7 -3
33 -39 113 -158 24 -36 48 -69 52 -75 5 -5 69 -98 143 -205 75 -107 142 -204
150 -215 8 -11 46 -66 85 -123 39 -57 75 -99 81 -96 10 6 31 6 176 1 34 -1 62
2 62 6 0 5 5 5 11 2 5 -4 42 -6 82 -5 40 1 81 1 92 0 24 -2 52 -2 80 0 11 0
65 0 120 0 55 0 125 0 155 0 30 0 101 -1 158 -2 56 -2 102 0 102 3 0 4 14 4
32 0 17 -4 57 -4 89 -1 32 3 67 2 78 -2 11 -4 23 -3 26 3 4 5 11 7 16 3 6 -3
49 -6 98 -6 l88 0 -13 -46 c-7 -26 -17 -62 -23 -80 -5 -18 -10 -35 -10 -37 -1
-3 -1 -6 -2 -7 0 -2 -2 -10 -4 -18 -1 -8 -17 -67 -34 -130 -18 -63 -34 -124
-36 -135 -10 -48 -29 -111 -36 -120 -5 -7 -168 -10 -463 -10 -430 0 -455 0
-443 -17 6 -9 39 -57 72 -105 33 -48 64 -93 70 -100 12 -13 145 -206 160 -231
6 -9 12 -19 15 -22 3 -3 25 -34 50 -70 24 -36 48 -66 52 -68 4 -2 8 -9 8 -16
0 -7 8 -21 18 -32 9 -11 22 -27 27 -36 6 -8 33 -49 62 -89 132 -188 122 -167
106 -218 -8 -25 -16 -53 -18 -61 -2 -8 -29 -108 -60 -222 -31 -114 -58 -220
-61 -235 -3 -14 -7 -30 -10 -35 -4 -6 -22 -71 -39 -138 -2 -8 -20 -76 -40
-150 -20 -74 -38 -142 -40 -150 -2 -8 -11 -40 -20 -70 -8 -30 -18 -64 -20 -75
-3 -11 -21 -78 -40 -150 -20 -71 -38 -139 -40 -150 -3 -11 -22 -83 -43 -160
-22 -77 -38 -141 -37 -143 4 -5 1387 -3 1392 1 2 3 6 17 9 33 3 16 12 52 20
80 8 28 16 60 19 70 2 11 22 84 45 164 22 80 42 152 43 160 1 8 6 21 11 28 4
7 5 16 2 19 -3 3 1 21 9 39 8 19 12 34 10 34 -3 0 0 12 6 28 6 15 20 61 30
102 11 41 25 91 30 110 15 53 19 68 23 88 2 9 30 109 61 222 31 113 58 212 61
220 2 8 14 67 27 130 39 192 26 331 -41 450 -29 51 -131 160 -149 160 -7 0
-13 4 -13 8 0 10 -168 92 -188 92 -35 0 -2 18 79 43 182 57 320 136 434 251
81 81 145 171 185 260 30 67 101 266 95 266 -2 0 4 20 15 45 11 25 20 49 20
53 0 4 5 25 11 47 6 22 12 45 14 50 1 6 5 17 8 25 5 12 38 132 53 190 2 8 17
67 34 130 49 184 54 221 54 350 0 87 -3 113 -18 178 -12 51 -73 146 -122 191
-86 76 -182 116 -374 157 -39 8 -3280 17 -3280 8z"/>
<path d="M7379 8156 c-2 -2 -38 -7 -79 -10 -83 -7 -121 -12 -196 -27 -28 -5
-64 -12 -80 -15 -54 -9 -232 -73 -296 -105 -201 -101 -356 -262 -480 -499 -64
-123 -156 -358 -173 -442 -2 -9 -13 -51 -25 -93 -12 -42 -23 -85 -25 -96 -2
-12 -7 -29 -10 -39 -3 -10 -8 -27 -10 -37 -2 -10 -13 -54 -25 -98 -12 -44 -23
-87 -25 -95 -2 -8 -17 -71 -34 -140 -28 -118 -62 -275 -77 -365 -13 -72 -6
-237 10 -263 3 -5 8 -24 11 -43 3 -18 9 -36 13 -39 4 -3 14 -18 22 -34 70
-135 272 -219 590 -243 47 -4 522 -7 1056 -7 651 -1 970 -4 968 -11 -2 -5 -31
-111 -64 -235 -33 -124 -65 -245 -72 -270 -7 -25 -11 -47 -9 -49 1 -2 -2 -7
-7 -10 -6 -3 -652 -6 -1437 -6 -978 1 -1428 -2 -1433 -10 -4 -5 -7 -14 -9 -20
-1 -5 -11 -44 -23 -85 -11 -41 -23 -86 -26 -100 -2 -14 -7 -32 -10 -40 -3 -8
-17 -58 -30 -110 -14 -52 -34 -128 -45 -170 -12 -41 -23 -86 -25 -99 -3 -13
-9 -32 -15 -43 -5 -10 -7 -18 -5 -18 3 0 -1 -18 -9 -40 -8 -22 -12 -40 -8 -40
3 0 0 -7 -7 -15 -7 -8 -10 -15 -7 -15 3 0 1 -15 -4 -32 -6 -18 -16 -55 -24
-83 -7 -27 -23 -86 -35 -130 -12 -44 -23 -87 -25 -95 -2 -8 -6 -28 -10 -43
l-7 -28 1661 1 c913 1 1661 5 1661 9 0 4 8 7 18 7 9 1 42 4 72 7 51 6 67 8
133 21 68 14 217 60 280 86 171 73 327 203 424 352 15 24 30 45 33 48 17 17
146 275 165 330 1 3 7 19 14 35 24 58 92 269 93 292 2 13 5 23 9 23 3 0 6 6 6
13 0 6 10 48 22 92 12 44 23 87 25 95 2 8 25 97 50 198 25 101 48 195 51 210
8 47 14 73 19 90 3 9 7 33 10 52 3 19 9 56 14 83 26 134 -15 347 -82 424 -6 7
-27 33 -46 57 -19 25 -42 47 -51 51 -8 3 -24 13 -35 23 -19 17 -61 39 -78 40
-5 0 -12 5 -15 10 -7 12 -150 57 -211 67 -25 4 -54 9 -65 12 -59 13 -223 15
-1102 16 -602 1 -963 5 -963 11 0 5 23 95 51 200 28 105 52 196 53 201 2 6 8
29 14 53 7 23 17 60 22 81 l10 39 98 1 c53 0 122 1 152 1 30 0 101 -1 158 -2
56 -2 102 0 102 3 0 4 14 4 32 0 17 -4 57 -4 89 -1 32 3 67 2 78 -2 11 -4 23
-3 26 1 3 5 20 5 39 1 19 -4 37 -6 39 -4 5 5 96 6 235 2 56 -2 102 0 102 3 0
4 14 4 32 0 17 -4 57 -4 89 -1 32 3 67 2 78 -2 11 -4 23 -3 26 2 3 5 11 7 18
4 22 -8 237 -9 237 -1 0 5 5 5 11 2 5 -4 42 -6 82 -5 40 1 81 1 92 1 99 -6
135 -5 135 2 0 5 5 5 11 2 5 -4 42 -6 82 -5 40 1 81 1 92 0 23 -2 52 -2 80 0
18 0 257 2 295 1 80 -2 144 -1 147 2 3 3 37 130 123 452 17 61 41 153 56 205
14 52 27 102 29 110 2 8 4 15 5 15 1 0 3 7 5 15 1 8 8 35 15 60 7 25 14 53 15
62 2 10 6 22 9 26 3 5 8 22 11 38 3 16 7 34 9 39 1 6 8 30 15 55 7 25 15 53
17 63 5 17 -64 17 -1504 17 -830 -1 -1511 -2 -1513 -4z"/>
<path d="M1432 7648 c-6 -29 -30 -120 -52 -203 -70 -259 -102 -379 -112 -420
-5 -22 -12 -47 -15 -55 -2 -8 -4 -16 -5 -17 0 -2 -11 -42 -24 -90 -14 -49 -27
-95 -29 -103 -1 -8 -13 -51 -24 -95 -12 -44 -23 -87 -25 -95 -2 -9 -20 -74
-40 -145 -51 -189 -96 -357 -101 -380 -3 -11 -18 -69 -35 -130 -17 -60 -32
-119 -34 -131 -2 -11 -6 -25 -9 -31 -3 -5 -8 -20 -11 -34 -2 -13 -30 -118 -61
-234 -92 -342 -196 -729 -200 -748 -2 -9 -15 -59 -29 -110 -14 -50 -44 -162
-66 -247 -23 -85 -44 -162 -47 -170 -3 -8 -8 -24 -10 -35 -2 -11 -8 -38 -14
-60 -6 -22 -10 -40 -9 -40 1 0 -3 -12 -9 -28 -6 -15 -13 -38 -15 -50 -3 -12
-17 -65 -31 -117 -14 -52 -28 -103 -30 -113 -4 -17 -6 -26 -21 -77 -5 -20 -1
-20 690 -20 l694 0 11 33 c11 36 51 182 56 210 2 9 6 21 9 25 3 5 7 21 10 37
3 16 12 52 21 80 21 70 95 345 101 375 2 14 7 32 11 40 3 8 7 20 8 26 8 33
110 409 126 462 10 35 18 66 17 70 -1 4 2 14 5 22 3 8 20 67 37 130 16 63 37
138 45 165 8 28 18 66 23 85 l8 35 375 1 c206 1 378 2 382 3 4 0 3 7 -3 14 -6
6 -78 109 -160 227 -82 118 -152 220 -157 225 -4 6 -33 46 -63 90 -29 44 -70
103 -89 130 -19 28 -72 104 -118 170 -45 66 -86 125 -91 130 -4 6 -47 68 -96
139 -49 71 -92 134 -97 140 -5 6 -26 36 -46 66 -20 30 -43 61 -50 68 -7 7 -13
17 -13 21 0 4 -8 17 -17 29 -16 18 -113 156 -153 217 -41 63 -124 181 -130
185 -4 3 -9 10 -11 16 -7 19 -252 364 -258 364 -4 0 -12 -24 -19 -52z"/>
<path d="M249 3205 c-6 -22 -17 -62 -25 -90 -8 -27 -27 -102 -44 -165 -17 -63
-37 -137 -45 -165 -8 -27 -17 -61 -20 -74 -2 -13 -9 -38 -14 -55 -6 -17 -12
-42 -15 -56 -3 -14 -23 -90 -45 -170 -21 -80 -38 -147 -35 -149 5 -6 284 -4
290 2 3 3 21 63 40 134 19 70 37 135 39 143 3 8 10 36 16 63 7 32 16 47 27 48
25 1 262 1 295 0 16 -1 26 -5 23 -9 -3 -5 -7 -19 -10 -33 -2 -13 -12 -51 -21
-84 -9 -33 -26 -91 -36 -130 -11 -38 -22 -81 -25 -94 -3 -14 -7 -28 -10 -33
-3 -4 1 -8 8 -9 7 0 25 -2 41 -3 15 -1 27 2 27 7 0 4 4 6 9 3 5 -3 37 -6 72
-7 123 -2 150 0 148 14 -1 6 0 19 3 27 4 8 18 62 33 120 15 58 33 126 40 152
20 70 4 122 -47 153 l-31 18 32 13 c58 24 93 56 114 103 29 65 67 209 67 253
0 51 -38 94 -93 104 -23 4 -212 8 -420 8 l-378 1 -10 -40z m566 -244 c-4 -19
-12 -50 -18 -70 l-12 -36 -155 0 c-85 -1 -160 1 -166 3 -8 2 -7 21 6 63 10 32
15 60 12 60 -33 6 81 14 196 14 l143 0 -6 -34z"/>
<path d="M1471 3234 c-137 -23 -193 -78 -244 -239 -9 -27 -19 -64 -22 -81 -2
-17 -11 -49 -19 -72 -9 -23 -15 -43 -15 -45 2 -6 -121 -470 -131 -494 -11 -27
-25 -25 149 -24 74 0 138 4 143 9 5 5 14 27 19 48 15 60 15 63 44 169 15 55
29 112 32 128 3 15 10 28 17 28 27 3 312 5 318 2 3 -2 0 -27 -8 -56 -8 -28
-16 -59 -18 -67 -2 -8 -9 -35 -16 -60 -7 -25 -14 -52 -16 -60 -2 -8 -10 -41
-19 -74 -9 -32 -14 -60 -11 -63 4 -4 203 -7 272 -4 21 1 36 45 79 224 2 9 6
21 9 25 3 5 7 19 9 33 3 13 17 69 32 124 14 55 28 107 30 115 2 8 15 57 29
107 14 51 28 105 31 120 2 15 9 39 14 53 18 45 42 152 36 158 -11 11 -675 7
-744 -4z m381 -240 c5 -7 1 -31 -7 -54 -8 -23 -15 -51 -15 -61 0 -15 -8 -19
-32 -20 -41 -1 -291 -1 -299 0 -6 1 -5 29 4 51 7 20 18 68 16 76 -2 16 29 19
173 20 107 0 155 -4 160 -12z"/>
<path d="M2350 3242 c-11 -2 -34 -74 -80 -245 -36 -133 -65 -244 -66 -247 -3
-19 -17 -69 -25 -90 -4 -14 -11 -36 -13 -50 -6 -27 -58 -224 -75 -280 -7 -21
-7 -38 -1 -44 10 -10 278 -11 288 -1 3 3 7 13 8 23 3 19 27 110 42 160 6 18
10 33 10 35 -1 2 5 25 32 113 l12 41 212 -1 c131 -1 229 3 258 10 106 27 171
103 209 247 27 100 29 108 34 141 2 15 6 30 8 33 10 9 -16 89 -35 110 -40 43
-74 46 -448 47 -195 1 -362 0 -370 -2z m524 -252 c3 -3 0 -23 -5 -45 -5 -22
-11 -44 -12 -50 -7 -30 -21 -33 -168 -32 l-151 0 7 36 c20 105 4 96 174 96 82
0 152 -3 155 -5z"/>
<path d="M3527 3243 c-1 0 -16 -3 -33 -6 -17 -3 -41 -10 -53 -16 -11 -7 -21
-9 -21 -5 0 8 -71 -45 -87 -66 -38 -49 -73 -145 -110 -305 -11 -48 -9 -106 4
-125 34 -48 63 -53 313 -56 129 -1 238 -2 242 -3 4 -1 1 -20 -6 -43 -15 -52
-16 -55 -16 -68 0 -6 -110 -10 -309 -10 l-309 0 -11 -32 c-13 -41 -32 -116
-37 -145 -2 -12 -9 -34 -14 -48 -6 -15 -10 -29 -10 -33 0 -12 704 -5 765 8 66
14 130 59 162 115 24 42 67 168 76 220 3 17 8 41 11 55 15 61 13 91 -8 123
-39 57 -57 61 -316 65 -129 2 -236 5 -237 6 -4 3 17 66 31 96 l12 25 278 0
279 0 9 25 c12 30 58 201 58 215 0 6 -117 10 -331 10 -182 0 -331 -1 -332 -2z"/>
<path d="M4260 3233 c0 -6 14 -53 31 -105 17 -51 32 -97 33 -103 1 -5 6 -23
13 -40 10 -28 37 -113 39 -125 0 -3 4 -12 7 -20 3 -8 16 -46 27 -85 12 -38 26
-80 32 -92 11 -22 9 -35 -16 -133 -2 -8 -12 -44 -21 -80 -9 -36 -23 -85 -31
-109 -10 -29 -11 -48 -5 -54 8 -8 220 -13 282 -8 10 1 25 46 65 201 30 117 43
152 68 180 17 20 51 60 76 90 25 29 50 58 55 64 9 10 88 103 140 164 11 13 29
34 40 46 11 12 38 44 60 70 22 26 57 66 77 89 21 23 38 47 38 52 0 6 -60 10
-161 10 l-161 -1 -32 -37 c-17 -20 -60 -76 -96 -124 -36 -49 -67 -90 -71 -93
-3 -3 -20 -27 -39 -53 -19 -27 -36 -45 -37 -40 -3 8 -60 259 -68 296 -12 55
-3 52 -180 52 -118 0 -165 -3 -165 -12z"/>
<path d="M5469 3233 c-68 -14 -110 -34 -144 -71 -35 -37 -49 -64 -79 -157 -49
-158 -62 -259 -36 -290 37 -44 64 -48 313 -50 130 0 238 -4 239 -8 0 -4 -4
-32 -11 -62 l-12 -55 -309 0 -308 0 -11 -32 c-9 -31 -29 -104 -36 -138 -2 -8
-9 -30 -14 -49 -6 -19 -9 -37 -6 -39 2 -2 163 -4 357 -4 341 1 418 6 472 34
28 14 86 69 86 82 0 5 6 17 14 25 10 12 45 100 51 131 1 3 9 39 18 80 27 116
27 137 3 173 -39 58 -67 64 -285 65 -108 1 -213 2 -233 2 l-37 0 10 33 c6 17
12 43 15 57 3 13 7 27 10 29 3 3 130 6 282 7 152 1 280 2 283 3 10 2 72 232
64 239 -11 12 -635 8 -696 -5z"/>
<path d="M6285 3240 c-3 -5 -43 -151 -51 -185 -16 -67 -29 -61 131 -60 80 0
145 0 145 -2 0 -1 -14 -55 -31 -120 -17 -65 -33 -125 -34 -133 -2 -8 -4 -15
-5 -15 -1 0 -3 -7 -5 -15 -1 -8 -10 -42 -19 -75 -9 -33 -18 -67 -21 -75 -12
-51 -27 -106 -48 -187 -17 -63 -21 -93 -13 -94 93 -4 291 1 292 7 0 5 3 16 6
24 4 8 11 35 17 60 18 69 17 67 56 210 36 135 41 154 49 188 44 176 60 220 80
224 11 2 78 3 149 3 105 0 128 2 132 15 17 56 55 208 55 220 0 13 -56 15 -441
15 -242 0 -442 -2 -444 -5z"/>
<path d="M7251 3205 c-6 -22 -20 -74 -32 -115 -26 -93 -38 -139 -44 -165 -3
-11 -26 -96 -51 -189 -25 -94 -48 -182 -51 -195 -2 -14 -6 -28 -9 -33 -3 -4
-7 -18 -10 -30 -3 -13 -7 -32 -9 -43 -3 -11 -13 -48 -24 -82 -12 -40 -15 -65
-9 -69 12 -8 797 -9 804 -1 5 5 40 128 64 225 l8 32 -252 0 c-139 0 -255 3
-258 6 -4 3 0 20 7 37 7 18 13 34 13 37 -1 3 2 14 5 25 7 20 15 20 239 20
l232 0 18 59 c10 33 20 69 23 80 2 12 7 31 11 43 l6 22 -194 0 c-106 0 -211 0
-234 1 l-41 0 15 58 c8 31 18 59 22 62 5 3 122 5 260 5 l250 -1 10 36 c6 19
21 73 34 120 13 47 22 87 19 90 -2 2 -186 4 -408 5 l-404 0 -10 -40z"/>
<path d="M8320 3240 c-5 -3 -18 -30 -29 -60 -12 -30 -26 -64 -31 -75 -5 -11
-30 -72 -55 -135 -26 -63 -52 -128 -59 -145 -8 -16 -29 -68 -49 -115 -130
-317 -167 -410 -167 -419 0 -13 -10 -12 157 -14 l131 -2 43 110 c23 61 48 125
55 143 7 18 14 36 15 40 0 4 6 16 12 27 6 11 12 23 13 28 1 4 3 9 4 12 1 3 3
8 5 13 1 4 6 18 12 32 6 14 16 43 24 65 19 57 24 60 22 12 -1 -23 -4 -140 -8
-259 l-6 -218 33 -1 c98 -2 209 1 218 6 5 3 28 45 51 93 23 48 46 90 51 93 5
3 9 9 9 13 -2 9 138 289 150 301 7 6 6 0 0 -18 -6 -15 -10 -31 -9 -35 2 -6 -9
-91 -17 -134 -2 -9 -6 -41 -9 -70 -4 -29 -8 -62 -10 -74 -4 -19 -15 -99 -21
-151 -3 -26 -9 -25 174 -24 63 0 116 3 119 6 3 3 7 20 9 38 3 50 12 121 17
153 3 16 8 52 11 79 3 28 8 66 10 85 3 19 7 53 10 75 2 22 7 60 10 85 3 25 8
59 9 75 2 17 7 50 10 75 4 25 9 61 10 80 2 19 7 62 12 95 4 33 8 73 8 89 l1
30 -173 0 c-105 1 -177 -3 -182 -9 -7 -9 -51 -92 -172 -325 -24 -47 -52 -103
-61 -125 l-17 -40 4 45 c9 79 10 439 3 447 -8 8 -334 11 -347 3z"/>
</g>
</svg>
